<?xml version="1.0" standalone="no"?>
<!DOCTYPE svg PUBLIC "-//W3C//DTD SVG 20010904//EN" "http://www.w3.org/TR/2001/REC-SVG-20010904/DTD/svg10.dtd">
<svg version="1.0"
	xmlns="http://www.w3.org/2000/svg" viewBox="0 0 3000.000000 3000.000000" preserveAspectRatio="xMidYMid meet">
	<g transform="translate(0.000000,3000.000000) scale(0.100000,-0.100000)" fill="currentColor" stroke="none">
		<path d="M21548 29240 c-123 -15 -255 -66 -362 -139 -89 -62 -247 -253 -270
-327 -8 -27 3 -39 119 -131 201 -160 358 -350 465 -563 67 -134 92 -210 160
-480 33 -131 71 -271 86 -311 107 -301 296 -501 619 -660 136 -66 264 -115
413 -157 l72 -20 -34 61 c-49 88 -102 254 -120 378 -21 140 -21 421 0 687 20
251 23 577 5 687 -55 353 -218 623 -481 797 -205 136 -458 203 -672 178z" />
		<path d="M19596 28975 c-356 -58 -765 -244 -1076 -489 -99 -78 -289 -263 -365
-356 -172 -211 -299 -470 -369 -750 -45 -184 -58 -291 -63 -555 -6 -277 5
-419 58 -785 62 -430 147 -834 260 -1230 55 -193 152 -490 161 -490 5 0 207
133 450 294 l442 295 71 -68 c39 -37 98 -84 132 -104 51 -31 88 -47 213 -93 8
-3 -34 -23 -95 -45 -220 -77 -512 -240 -738 -411 -402 -304 -834 -766 -1196
-1281 -46 -64 -87 -119 -91 -122 -4 -3 -31 59 -60 138 -69 188 -155 402 -224
561 l-57 130 115 256 c149 330 297 673 293 676 -2 2 -104 -183 -227 -411 -124
-228 -227 -415 -230 -414 -3 0 -35 61 -72 137 -276 567 -710 1100 -1193 1463
-133 99 -409 281 -494 323 -68 35 -169 66 -212 66 -38 0 -38 0 -80 88 -23 48
-49 102 -58 120 -61 125 -205 259 -356 332 -197 95 -341 104 -404 24 -34 -43
-26 -128 16 -188 l31 -44 -76 -7 c-229 -19 -317 -41 -369 -92 -28 -28 -33 -41
-33 -80 0 -42 4 -50 50 -96 28 -27 50 -51 50 -53 0 -2 -11 -4 -25 -4 -31 0
-93 -25 -117 -47 -22 -20 -24 -83 -4 -121 37 -70 117 -112 214 -112 l55 0 -20
-22 c-59 -65 -49 -107 36 -150 49 -25 65 -28 161 -28 115 0 208 13 252 36 16
8 28 12 28 10 0 -3 -11 -47 -25 -98 -14 -51 -32 -145 -40 -208 -8 -63 -29
-203 -45 -311 -83 -548 -96 -995 -44 -1554 57 -620 221 -1259 447 -1745 137
-295 351 -610 594 -873 l100 -108 -159 -357 c-184 -412 -419 -954 -415 -958 3
-3 213 390 457 857 103 195 190 360 193 367 5 7 38 -14 94 -59 434 -348 959
-549 1533 -589 91 -6 166 -13 168 -14 1 -2 -37 -45 -84 -97 -245 -265 -803
-926 -928 -1099 -16 -21 113 92 288 255 199 184 626 613 799 801 l138 151 132
6 c426 21 864 118 1302 288 99 39 186 71 194 72 14 2 55 -287 130 -908 30
-245 57 -393 92 -498 l29 -88 -17 -102 c-9 -59 -23 -109 -32 -118 -9 -9 -182
-111 -386 -226 -573 -326 -1630 -947 -1660 -975 -28 -27 1275 636 1860 946 88
46 161 84 161 83 1 -1 -13 -106 -31 -233 -168 -1179 -198 -2302 -90 -3374 14
-135 28 -260 31 -278 l6 -33 -38 16 c-22 9 -97 40 -169 70 -418 172 -864 382
-1675 788 -1114 558 -2642 1292 -4225 2030 -1277 595 -2568 1140 -2897 1225
l-48 12 0 93 c0 195 -47 561 -101 787 -11 47 -29 130 -40 185 -31 155 -81 250
-188 355 -114 113 -157 133 -581 269 -1371 439 -1801 493 -2468 315 -119 -32
-135 -35 -150 -21 -35 31 -107 59 -162 64 -76 7 -163 -8 -350 -62 -85 -24
-234 -61 -330 -80 -241 -50 -541 -118 -1030 -236 -228 -55 -514 -120 -635
-145 -121 -25 -263 -56 -316 -69 -312 -79 -503 -176 -549 -278 l-18 -39 -148
-38 c-82 -21 -266 -66 -409 -100 -379 -91 -525 -146 -642 -242 -164 -135 -248
-365 -197 -539 71 -243 319 -418 1029 -729 453 -199 646 -318 721 -446 39 -67
121 -484 178 -914 26 -196 917 -5136 1262 -6999 41 -221 88 -485 105 -584 37
-219 57 -278 114 -333 69 -67 180 -82 259 -36 l30 18 226 -89 c124 -49 438
-172 699 -274 261 -101 479 -187 484 -190 5 -3 -60 -32 -145 -65 -84 -33 -243
-95 -354 -138 -230 -90 -304 -125 -391 -186 -163 -116 -217 -255 -234 -604 -6
-113 -24 -398 -40 -635 -16 -236 -34 -511 -40 -610 l-11 -180 -33 -35 c-73
-77 -113 -168 -130 -300 -6 -43 -9 -46 -65 -73 -345 -164 -309 -750 57 -925
77 -36 80 -37 198 -37 104 1 129 4 187 27 188 72 327 207 393 383 49 130 40
272 -27 397 -38 72 -120 158 -178 188 l-39 20 14 41 c17 47 20 145 5 183 -7
20 -5 33 12 62 11 19 24 59 27 88 l6 52 4225 -1672 c2324 -920 4374 -1732
4556 -1804 l331 -131 -24 -67 c-14 -37 -27 -99 -30 -138 l-6 -71 -46 -17
c-196 -70 -306 -310 -257 -556 54 -267 236 -430 480 -430 167 0 305 59 432
185 187 187 235 417 128 627 -33 66 -121 158 -179 189 -50 27 -51 28 -30 69
l15 29 70 -24 c240 -81 592 -107 810 -60 286 63 477 159 1075 542 138 88 355
222 483 297 851 501 1093 673 1186 846 104 192 -23 464 -315 672 -171 122
-290 185 -1404 735 -506 250 -924 458 -928 462 -7 7 1431 899 2297 1425 478
291 729 456 785 516 77 83 94 171 231 1160 44 322 84 601 87 620 5 29 21 -25
89 -300 402 -1626 622 -2619 778 -3500 29 -168 61 -322 69 -343 19 -45 78 -75
164 -84 l56 -6 -232 -68 c-390 -113 -556 -177 -688 -267 -136 -92 -188 -198
-145 -294 24 -55 66 -88 159 -127 121 -50 191 -61 453 -72 375 -16 754 7 1023
62 191 38 342 110 393 187 44 64 44 280 1 452 l-23 89 28 6 c37 9 54 34 83
128 57 180 233 1153 325 1797 22 157 49 337 60 400 24 142 40 308 40 420 0
106 -116 1022 -210 1660 -74 499 -122 778 -215 1240 -301 1497 -427 2716 -520
5030 -24 605 -22 590 85 -645 197 -2274 300 -3068 555 -4280 202 -963 272
-1462 450 -3200 180 -1759 285 -2660 312 -2685 4 -4 58 -22 118 -39 61 -17
124 -35 140 -40 17 -5 86 -17 155 -26 69 -9 181 -26 250 -37 98 -16 152 -20
250 -15 69 3 132 6 140 8 22 6 38 -101 39 -271 1 -157 -7 -209 -37 -249 -59
-81 -170 -110 -547 -145 -313 -30 -537 -39 -800 -33 -261 6 -318 12 -423 42
-68 20 -122 69 -122 112 0 99 153 194 691 426 228 99 438 198 388 184 -16 -5
-161 -52 -499 -162 -403 -130 -583 -233 -645 -368 -31 -65 -31 -100 -2 -157
36 -73 115 -113 295 -150 318 -64 848 -46 1312 45 268 53 364 99 413 195 28
55 29 56 24 205 -4 117 -10 171 -29 245 l-25 94 47 46 c44 42 52 58 89 174 94
288 138 496 326 1550 377 2114 398 2244 826 5106 180 1206 206 1385 258 1780
247 1857 247 3111 1 4555 -120 704 -281 1249 -468 1579 l-44 79 26 106 c14 58
29 143 32 188 12 147 -28 358 -92 485 -13 26 -24 49 -24 52 0 2 30 -7 68 -19
165 -58 312 -85 462 -85 441 0 902 234 1365 695 466 464 789 1048 929 1683
233 1051 165 2097 -214 3314 -67 216 -85 260 -126 302 l-33 34 73 16 c131 30
269 109 326 188 50 68 38 129 -30 149 l-39 12 38 27 c126 92 164 212 92 289
-35 37 -75 40 -140 11 -24 -11 -45 -20 -46 -20 -2 0 6 24 17 53 26 68 17 112
-32 145 -31 21 -43 23 -110 20 -67 -4 -91 -12 -219 -71 -79 -37 -145 -67 -146
-67 -1 0 0 24 2 53 7 96 -48 161 -135 160 -86 -1 -162 -54 -263 -181 -136
-170 -209 -363 -225 -597 l-7 -95 -61 -44 c-77 -55 -268 -251 -367 -376 -104
-130 -156 -206 -239 -345 -310 -521 -485 -1144 -540 -1930 -7 -88 -13 -161
-14 -163 -2 -1 -11 19 -21 45 -10 27 -56 123 -102 215 -267 527 -691 1002
-1166 1305 -127 81 -370 200 -502 246 -369 128 -754 139 -1083 28 -124 -41
-168 -64 -264 -132 -46 -33 -117 -76 -158 -97 -67 -34 -81 -37 -155 -37 -104
1 -163 30 -260 129 -106 108 -263 361 -354 570 l-33 74 48 63 c60 82 106 180
135 294 21 81 24 112 23 295 0 228 -4 261 -95 700 -67 328 -122 548 -170 689
-54 157 -194 436 -273 545 -252 349 -601 576 -1026 666 -136 29 -447 37 -584
15z m7805 -1966 c7 -13 10 -60 9 -118 -3 -120 -3 -121 15 -121 9 0 61 23 117
51 152 76 278 129 309 129 40 0 72 -31 72 -69 0 -43 -25 -74 -117 -146 -86
-67 -129 -116 -124 -142 6 -32 38 -25 119 27 44 28 118 70 164 92 69 33 89 38
111 31 69 -23 57 -75 -39 -166 -39 -38 -108 -96 -154 -129 -100 -71 -108 -93
-30 -83 28 4 78 16 109 26 70 23 94 24 102 3 10 -26 -25 -73 -89 -121 -180
-136 -328 -152 -725 -79 -107 20 -223 36 -257 36 -57 0 -63 2 -69 24 -8 32 12
199 32 266 58 196 192 386 339 479 57 36 90 39 106 10z m-8491 -213 c102 -9
262 -20 355 -26 307 -19 551 -49 642 -80 164 -55 285 -148 436 -334 153 -191
284 -421 357 -631 40 -113 88 -310 96 -391 9 -90 11 -91 86 -64 164 59 406
200 541 314 36 31 70 56 75 56 4 0 26 -41 47 -92 22 -50 69 -143 105 -207 151
-266 236 -366 368 -432 58 -30 77 -34 142 -34 l75 0 -70 -70 c-86 -86 -152
-186 -282 -425 -189 -348 -361 -604 -512 -763 -195 -205 -439 -326 -666 -330
-109 -2 -178 14 -268 61 -83 43 -165 128 -206 215 -34 71 -61 192 -61 270 0
186 111 500 242 682 39 55 41 57 77 50 72 -13 104 -36 119 -85 19 -65 9 -151
-25 -220 -25 -50 -26 -56 -9 -44 34 24 75 94 82 141 11 78 -2 183 -44 333 -63
223 -93 295 -134 324 -34 24 -45 20 -106 -37 -110 -103 -201 -161 -344 -223
-406 -174 -723 -43 -1031 426 -136 208 -391 768 -420 922 -10 55 -9 61 8 71
75 42 141 141 133 202 -3 27 -6 24 -60 -46 -31 -41 -67 -84 -81 -97 l-25 -23
-6 24 c-17 69 -25 264 -16 375 17 193 33 217 135 208 33 -3 143 -12 245 -20z
m-4452 -569 c41 -14 99 -41 130 -59 119 -70 278 -260 317 -378 23 -69 10 -99
-58 -135 -51 -28 -71 -42 -274 -197 -57 -43 -129 -91 -161 -107 -58 -29 -149
-58 -187 -59 -11 -1 -67 -4 -125 -7 -96 -6 -108 -5 -138 15 -64 40 -22 90 94
111 64 12 94 31 94 61 0 29 -41 39 -201 47 -154 9 -213 25 -224 62 -16 49 26
60 231 64 180 3 225 12 232 48 8 41 -39 59 -207 77 -92 10 -171 36 -186 59 -4
7 -4 23 -1 37 11 41 61 54 265 70 197 15 251 25 275 50 22 22 11 42 -70 119
-79 75 -90 101 -56 138 15 17 27 19 97 14 48 -3 109 -15 153 -30z m12781 -106
c80 -16 175 -32 211 -35 78 -7 163 -29 194 -49 49 -32 109 -179 147 -360 12
-56 34 -150 50 -208 178 -651 273 -1468 240 -2069 -51 -928 -288 -1651 -737
-2245 -312 -414 -809 -800 -1194 -929 -357 -119 -663 -79 -1137 149 -835 402
-1598 1173 -1930 1950 -50 118 -54 108 -14 -36 178 -627 740 -1286 1502 -1759
156 -97 358 -203 494 -260 55 -23 107 -50 117 -61 22 -26 76 -176 100 -284 16
-68 21 -124 21 -225 0 -199 -34 -311 -136 -445 -58 -77 -112 -118 -327 -247
-972 -586 -1938 -920 -2960 -1024 -229 -24 -735 -24 -955 0 -370 39 -673 101
-990 203 -114 37 -285 110 -285 123 0 4 107 65 238 135 575 310 1319 727 1954
1096 405 236 1028 607 1043 621 29 27 -823 -399 -1410 -705 -544 -283 -1253
-666 -1734 -935 l-214 -120 -21 26 c-57 71 -94 159 -131 317 -25 103 -73 454
-100 725 -37 370 -89 728 -141 970 -29 136 -36 162 -119 435 -76 247 -112 395
-150 600 -24 131 -27 165 -22 275 14 287 99 632 251 1016 87 220 170 402 377
824 132 270 193 405 197 436 3 25 0 44 -5 44 -11 0 -171 -279 -281 -490 -220
-422 -482 -1065 -567 -1395 -48 -184 -68 -336 -68 -515 -1 -233 16 -326 118
-660 71 -230 145 -504 195 -718 22 -95 40 -174 40 -177 0 -7 -300 -121 -417
-159 -331 -106 -670 -175 -1012 -206 -63 -5 -116 -9 -117 -7 -1 1 36 45 83 97
196 219 667 799 658 809 -8 7 -351 -315 -646 -606 l-306 -303 -109 0 c-278 0
-641 71 -934 184 -291 111 -509 236 -720 412 l-87 72 361 723 c419 838 734
1501 1036 2177 35 78 67 142 71 142 12 0 124 -295 188 -495 73 -227 133 -355
174 -370 41 -14 75 9 122 83 136 212 251 382 328 484 366 485 914 993 1292
1200 218 119 479 215 674 249 123 21 413 37 475 25 l37 -7 -112 -117 c-320
-335 -473 -605 -540 -956 -46 -237 7 -449 147 -591 99 -100 205 -145 343 -145
153 0 251 40 421 169 58 44 147 118 199 165 62 58 101 86 117 86 18 0 39 -21
92 -92 113 -152 237 -253 382 -312 367 -149 735 12 911 399 72 158 101 310
129 675 11 140 27 303 36 362 16 116 24 144 145 546 43 144 79 264 79 266 0 2
26 13 58 24 524 188 1101 130 1578 -159 264 -159 676 -536 894 -817 130 -168
260 -378 355 -573 161 -330 158 -324 184 -324 14 0 32 11 44 27 19 25 20 40
18 250 -2 296 24 516 105 882 129 581 413 1133 778 1514 95 99 224 206 281
233 60 28 170 25 344 -10z m-12136 -536 c122 -32 277 -128 517 -320 427 -342
720 -667 983 -1090 80 -130 227 -406 287 -542 l32 -71 -141 -271 c-379 -726
-1158 -2322 -1341 -2748 -12 -29 -25 -53 -29 -53 -4 0 -34 28 -67 63 -487 503
-828 1278 -978 2222 -62 393 -80 655 -73 1070 9 518 46 887 122 1227 36 161
77 227 183 300 25 17 74 53 111 81 87 66 253 147 301 147 19 0 61 -7 93 -15z
m7415 -682 c-85 -209 -204 -572 -222 -678 -9 -49 -23 -189 -31 -310 -8 -121
-20 -260 -26 -310 -49 -417 -233 -685 -516 -751 -106 -25 -255 -15 -365 23
-159 55 -307 164 -405 297 l-44 60 76 27 c326 119 577 406 877 1003 164 327
256 468 374 574 68 61 298 211 325 211 13 1 5 -29 -43 -146z m-2020 -55 c49
-127 86 -238 79 -244 -2 -2 -44 9 -93 25 -93 31 -247 60 -324 62 -39 0 -42 2
-27 12 136 88 176 117 238 176 41 39 77 70 80 71 3 0 24 -46 47 -102z m-126
-244 l38 -7 -29 -36 c-116 -149 -215 -367 -256 -566 -22 -106 -23 -280 -1
-365 62 -246 259 -389 534 -390 43 0 72 -4 70 -10 -7 -21 -238 -225 -313 -276
-217 -148 -433 -138 -609 27 -71 66 -118 145 -142 240 -31 119 0 374 67 566
54 154 121 269 275 474 239 316 279 363 309 355 11 -4 37 -9 57 -12z m-12767
-4225 c234 -20 397 -62 1120 -284 308 -95 807 -260 897 -297 85 -35 139 -77
181 -141 78 -117 115 -259 147 -556 11 -107 29 -246 40 -310 20 -117 40 -309
40 -388 l0 -43 -57 0 c-32 0 -78 -5 -102 -11 -24 -5 -45 -8 -47 -6 -5 5 -51
343 -84 617 -39 329 -46 372 -71 452 -23 72 -71 138 -120 164 -59 30 -261 97
-574 190 -176 53 -450 136 -609 185 -559 173 -778 211 -1077 189 -160 -13
-432 -69 -549 -115 -13 -5 -15 5 -12 62 3 60 0 75 -26 126 -19 38 -26 60 -18
63 6 2 72 19 146 38 261 67 516 88 775 65z m-1136 -80 c62 -13 132 -72 156
-131 20 -48 23 -134 7 -164 -24 -45 -674 -289 -1078 -404 -565 -162 -1490
-400 -1838 -474 -195 -42 -334 -50 -321 -18 21 50 27 95 23 168 -5 101 -38
165 -93 185 -41 15 -44 28 -12 57 61 58 168 87 1080 297 625 144 1412 338
1697 420 258 74 300 81 379 64z m1172 -269 c209 -21 443 -80 893 -224 115 -37
353 -109 530 -161 176 -51 345 -103 375 -115 116 -45 142 -84 161 -240 6 -52
38 -282 71 -511 32 -229 59 -427 59 -441 0 -23 -21 -32 -447 -183 -1751 -617
-2950 -1057 -4432 -1626 -348 -133 -633 -240 -635 -238 -6 7 -144 792 -156
884 -39 309 -138 506 -323 646 -79 60 -421 235 -690 355 -161 71 -443 220
-551 291 -113 73 -208 160 -227 205 -11 26 -10 35 6 64 48 90 238 153 712 239
138 24 264 50 280 56 15 6 108 12 208 13 235 3 455 39 1005 162 785 176 1120
277 2007 608 462 172 595 201 1024 225 15 0 73 -4 130 -9z m-4331 -656 c28
-11 42 -24 46 -41 7 -28 -2 -148 -12 -165 -11 -17 -107 -56 -191 -77 -43 -11
-189 -43 -325 -71 -344 -70 -490 -119 -571 -190 -49 -43 -67 -79 -67 -135 0
-58 16 -88 77 -147 92 -88 215 -156 723 -398 573 -272 695 -358 842 -591 131
-209 190 -428 264 -979 56 -424 334 -1947 979 -5355 351 -1856 394 -2076 432
-2220 29 -111 36 -160 37 -235 1 -112 -16 -151 -80 -187 -107 -61 -185 0 -243
192 -12 39 -226 1200 -476 2580 -705 3894 -1035 5701 -1095 5989 -11 55 -31
119 -45 142 -36 61 -106 117 -210 168 -49 24 -326 160 -615 302 -289 141 -562
281 -607 311 -100 65 -144 115 -191 213 -33 67 -37 85 -40 172 -7 165 44 284
163 381 121 98 170 115 670 237 204 49 393 96 420 104 66 19 68 19 115 0z
m6940 -1215 c178 -58 478 -176 625 -244 55 -26 339 -152 630 -280 557 -244
819 -363 1645 -748 1853 -861 7207 -3371 7265 -3404 13 -8 16 -15 10 -21 -5
-5 -228 -112 -495 -237 -1080 -508 -1269 -603 -2600 -1302 -481 -253 -1084
-569 -1340 -703 -256 -133 -471 -249 -477 -258 -12 -14 -18 -13 -60 6 -27 11
-59 24 -73 28 -14 3 -88 41 -165 84 -736 407 -1192 633 -3179 1580 -633 301
-1306 622 -1495 713 l-343 164 1 634 c3 1254 -42 2391 -145 3645 l-28 331 35
31 c19 17 34 32 34 32 1 0 70 -23 155 -51z m-5871 -2205 c79 -29 907 -381 920
-390 6 -5 74 -585 68 -590 -3 -3 -76 26 -164 65 -87 39 -306 133 -488 210
-181 77 -333 146 -337 153 -6 11 -108 560 -108 581 0 11 6 9 109 -29z m1326
-584 c171 -77 423 -190 560 -253 l250 -113 6 -120 c6 -122 35 -400 46 -443 5
-18 3 -23 -8 -19 -8 4 -153 69 -324 146 -170 76 -416 186 -545 243 -129 56
-238 105 -242 108 -3 3 -25 132 -48 286 -22 154 -43 288 -47 298 -7 26 -4 25
352 -133z m-1217 -75 c48 -24 271 -133 495 -241 224 -109 410 -201 413 -206 7
-11 244 -1832 239 -1837 -2 -2 -201 80 -442 182 l-438 185 -177 954 c-97 524
-179 965 -182 981 -3 15 -3 27 0 27 3 0 44 -20 92 -45z m2740 -600 l402 -179
0 -155 c1 -86 5 -217 10 -291 5 -74 8 -135 6 -137 -1 -2 -86 36 -187 83 -101
48 -326 151 -499 230 -173 80 -320 151 -325 158 -6 8 -16 61 -23 118 -14 108
-59 417 -67 455 -6 24 -59 47 683 -282z m-1073 -221 l420 -202 47 -374 c26
-205 58 -476 73 -603 25 -226 77 -787 72 -791 -1 -1 -112 47 -247 107 -135 60
-375 166 -535 234 -159 69 -295 129 -302 133 -7 4 -21 109 -38 272 -40 406
-80 749 -135 1154 -28 203 -50 377 -50 387 0 20 -57 45 695 -317z m2000 -198
l480 -217 3 -299 c3 -202 0 -300 -7 -300 -11 0 -878 417 -897 432 -6 4 -14 39
-18 76 -8 79 -63 476 -71 511 -5 19 -3 23 12 19 10 -3 234 -103 498 -222z
m-965 -289 l465 -213 12 -190 c25 -402 60 -790 119 -1318 14 -125 24 -230 22
-232 -2 -1 -91 38 -198 87 -162 75 -556 252 -752 337 -32 14 -48 27 -48 39 0
71 -104 1260 -135 1541 -8 74 -15 147 -15 163 l0 29 33 -16 c17 -8 241 -110
497 -227z m1942 -155 l465 -214 6 -111 c21 -368 27 -456 33 -489 3 -22 2 -38
-4 -38 -8 0 -911 435 -918 443 -1 1 -7 67 -14 147 -12 157 -37 395 -46 449 -3
18 -1 32 4 30 5 -2 218 -100 474 -217z m-932 -311 l435 -199 7 -84 c3 -45 11
-191 18 -323 11 -248 29 -487 76 -1018 15 -169 25 -310 22 -312 -4 -5 -863
397 -876 409 -9 10 -32 377 -42 676 -11 320 -25 522 -60 844 -20 179 -22 206
-17 206 1 0 198 -90 437 -199z m1900 -127 l475 -216 -5 -86 c-5 -84 12 -424
25 -523 4 -27 4 -49 1 -49 -3 0 -210 96 -459 214 l-452 214 -12 134 c-15 168
-52 487 -59 511 -3 9 -2 17 3 17 4 0 222 -97 483 -216z m10520 -189 c-26 -131
-53 -241 -59 -243 -6 -2 -211 -105 -456 -228 -244 -123 -447 -224 -451 -224
-4 0 -4 100 -1 223 5 198 4 219 -8 190 -8 -18 -27 -126 -41 -240 -15 -115 -27
-208 -28 -209 0 0 -229 -116 -508 -257 l-508 -257 0 202 c0 111 -2 199 -5 196
-13 -13 -46 -214 -52 -320 l-6 -117 -156 -80 c-86 -44 -302 -156 -481 -250
l-325 -170 -7 242 c-4 133 -6 243 -4 244 2 2 227 118 502 259 704 360 1645
829 1934 964 241 112 703 319 707 316 0 0 -20 -109 -47 -241z m-15715 50 c197
-85 715 -328 724 -340 9 -12 73 -531 136 -1105 43 -397 66 -575 123 -972 16
-109 26 -198 23 -198 -3 0 -167 69 -364 153 -260 110 -362 158 -368 172 -7 17
-429 2326 -429 2349 0 4 6 6 13 3 6 -3 71 -31 142 -62z m4325 -200 c223 -98
406 -179 407 -180 10 -6 91 -785 97 -945 3 -58 9 -195 15 -305 6 -110 13 -276
16 -368 6 -161 6 -168 -12 -159 -10 5 -220 105 -468 222 -247 117 -454 216
-458 220 -13 12 -53 651 -87 1380 -6 118 -13 248 -16 288 l-6 73 53 -24 c30
-13 236 -104 459 -202z m1840 -100 c228 -109 418 -200 421 -204 6 -5 29 -631
23 -639 -1 -1 -191 83 -422 189 -413 187 -422 192 -427 223 -2 17 -12 103 -20
191 -16 162 -41 372 -52 433 l-5 33 33 -14 c19 -8 221 -104 449 -212z m9441
-311 c-89 -476 -238 -1345 -263 -1533 -3 -20 -60 -54 -387 -227 -211 -113
-385 -203 -386 -202 -2 2 16 188 40 413 58 553 93 924 108 1139 l12 180 170
94 c94 52 301 170 460 261 167 96 291 162 293 155 2 -7 -20 -133 -47 -280z
m-14263 0 c295 -136 540 -249 543 -253 4 -3 21 -202 38 -441 53 -720 97 -1188
159 -1702 5 -40 5 -68 -1 -68 -5 0 -180 76 -390 169 -210 93 -417 184 -459
202 -72 31 -77 35 -82 68 -3 20 -60 362 -126 761 -66 399 -143 883 -170 1075
-64 449 -62 435 -55 435 3 0 248 -111 543 -246z m3905 20 c237 -108 435 -199
439 -203 8 -7 81 -739 103 -1026 8 -110 19 -292 25 -405 5 -113 12 -244 15
-292 3 -49 3 -88 0 -88 -12 0 -925 443 -925 449 0 3 -7 123 -15 266 -8 143
-26 465 -40 715 -14 250 -31 528 -38 618 -7 89 -9 162 -4 162 4 0 202 -88 440
-196z m1828 -132 l452 -208 1 -320 1 -321 -40 17 c-124 54 -781 353 -787 358
-4 4 -14 79 -23 167 -9 88 -27 240 -39 338 -12 97 -21 177 -20 177 1 0 206
-94 455 -208z m-988 -258 c172 -81 360 -169 418 -196 l106 -50 6 -172 c9 -225
31 -513 68 -881 30 -298 69 -748 66 -751 -3 -3 -861 396 -868 403 -4 5 -17
175 -28 378 -34 597 -61 1017 -76 1210 -17 206 -17 205 -9 205 3 0 146 -66
317 -146z m-3651 -145 c271 -132 496 -243 500 -247 9 -10 45 -416 63 -712 8
-140 24 -412 35 -605 11 -192 27 -445 36 -562 8 -117 14 -226 12 -243 l-3 -30
-435 199 c-280 129 -437 206 -442 218 -27 64 -161 1153 -228 1843 -16 173 -32
330 -34 348 -3 17 -3 32 -1 32 2 0 226 -108 497 -241z m12204 160 c-29 -140
-65 -561 -108 -1257 -12 -205 -25 -377 -28 -381 -7 -10 -930 -504 -934 -500
-2 2 7 189 19 414 13 226 28 570 35 765 7 195 15 383 19 418 l6 63 500 279
c275 153 501 277 503 275 2 -1 -4 -36 -12 -76z m-6076 -439 c531 -244 968
-446 971 -449 6 -5 31 -663 26 -667 -2 -2 -840 395 -843 399 -1 1 -7 67 -13
147 -15 191 -41 461 -47 479 -14 42 -19 -30 -24 -299 l-5 -298 -77 44 c-42 25
-264 130 -495 235 -230 105 -419 191 -420 192 0 1 -9 88 -17 192 -9 105 -23
246 -31 315 -18 154 -18 163 -2 157 6 -2 446 -204 977 -447z m-1029 -277 c23
-25 104 -1052 125 -1601 l7 -172 -189 88 c-104 49 -298 139 -431 202 l-243
112 0 37 c0 53 -78 1375 -90 1520 -6 68 -10 145 -10 172 l0 47 412 -199 c226
-109 415 -202 419 -206z m5036 240 c-14 -66 -18 -130 -18 -255 l0 -167 -137
-72 c-370 -194 -540 -285 -677 -363 l-150 -86 -12 228 c-7 125 -12 240 -10
255 2 27 30 43 507 287 278 142 508 259 511 259 3 1 -3 -38 -14 -86z m-9359
-57 c195 -98 470 -226 592 -277 30 -12 58 -25 62 -28 10 -9 36 -391 48 -706
23 -611 41 -1039 51 -1223 6 -107 9 -195 7 -198 -3 -2 -189 83 -414 189 l-409
194 -17 244 c-28 402 -137 1842 -142 1877 -3 17 0 32 5 32 5 0 103 -47 217
-104z m10348 -138 c-22 -493 -78 -1514 -84 -1520 -4 -3 -211 -116 -459 -251
l-453 -245 0 96 c2 267 48 1544 57 1553 9 9 933 518 942 519 2 0 1 -69 -3
-152z m-5412 -334 c270 -131 495 -241 500 -245 5 -4 13 -77 17 -161 5 -84 22
-371 39 -638 28 -449 52 -932 47 -937 -1 -1 -232 106 -512 237 l-510 238 -7
99 c-4 54 -16 321 -28 593 -11 272 -27 610 -35 750 -17 291 -17 300 -9 300 4
0 228 -106 498 -236z m-3749 -64 c252 -110 460 -202 463 -204 2 -3 8 -113 13
-244 4 -132 13 -295 18 -363 72 -857 126 -1588 118 -1595 -4 -4 -933 428 -944
439 -1 2 -12 167 -23 368 -11 200 -27 463 -35 584 -8 121 -21 335 -30 475 -16
269 -41 600 -50 688 -4 29 -2 52 3 52 5 0 215 -90 467 -200z m5211 141 c18
-17 592 -309 699 -356 131 -56 183 -86 216 -121 22 -24 24 -33 26 -142 1 -64
6 -164 12 -221 6 -57 11 -134 11 -172 0 -69 0 -69 -28 -69 -15 0 -90 31 -167
68 -77 38 -273 131 -435 207 -162 76 -299 142 -303 145 -5 4 -15 99 -23 211
-8 112 -19 251 -24 309 -15 153 -13 168 16 141z m1944 -13 c0 -7 -5 -31 -10
-53 -5 -22 -16 -137 -25 -255 -10 -136 -20 -219 -28 -226 -16 -16 -540 -347
-712 -451 l-140 -85 -6 279 c-3 153 -9 289 -13 303 -7 24 1 29 216 137 123 61
331 168 463 236 132 69 243 125 248 126 4 1 7 -5 7 -11z m987 -640 c-5 -372
-28 -1100 -37 -1135 0 -3 -58 -36 -235 -133 -202 -111 -497 -287 -624 -373
l-104 -69 6 273 c4 151 11 319 16 374 15 148 31 577 31 825 l0 218 473 260
c259 143 474 261 476 261 2 1 1 -225 -2 -501z m2744 15 c-63 -406 -165 -1118
-226 -1568 -28 -205 -51 -343 -58 -348 -45 -31 -613 -373 -615 -371 -2 1 15
197 37 436 59 629 69 755 86 1038 8 140 22 349 32 464 l17 209 65 42 c36 23
134 83 216 133 83 50 227 141 320 201 94 60 171 106 173 101 2 -4 -20 -156
-47 -337z m-6139 79 l413 -199 6 -319 c4 -175 14 -440 22 -589 23 -381 40
-777 36 -797 -3 -14 -80 20 -420 183 l-416 201 -7 161 c-3 89 -11 315 -16 502
-14 486 -29 888 -36 978 -3 42 -4 77 -1 77 3 0 192 -89 419 -198z m-3757 -27
c242 -109 444 -202 449 -206 5 -5 18 -188 28 -406 10 -219 38 -717 63 -1107
25 -390 44 -710 43 -712 -6 -6 -853 406 -860 418 -4 7 -19 164 -33 348 -30
381 -52 637 -95 1060 -16 162 -36 387 -44 500 -9 113 -18 229 -21 259 -5 48
-4 53 12 49 10 -3 216 -94 458 -203z m-4919 39 c98 -48 264 -126 369 -175 104
-49 193 -93 197 -97 12 -12 69 -381 208 -1350 44 -305 86 -611 94 -681 9 -69
22 -146 31 -170 8 -24 13 -46 10 -49 -4 -4 -743 254 -753 262 -1 2 10 25 25
51 23 41 27 60 26 124 -1 42 -8 108 -17 146 -9 39 -95 504 -191 1035 -97 531
-178 971 -180 978 -2 6 -3 12 -1 12 2 0 83 -39 182 -86z m11021 -261 c-4 -49
-10 -425 -13 -836 l-7 -748 -396 -268 -396 -268 -7 36 c-11 55 -41 1705 -31
1708 4 2 195 106 423 233 228 126 419 229 424 229 5 1 6 -37 3 -86z m-1380
-207 c238 -113 439 -206 447 -206 16 0 16 -18 35 -995 6 -319 12 -617 15 -662
2 -46 2 -83 0 -83 -19 0 -173 68 -229 101 -38 23 -208 110 -376 195 l-307 153
-6 113 c-3 62 -11 349 -16 638 -6 289 -13 624 -17 744 -5 187 -4 218 8 214 8
-4 209 -99 446 -212z m4388 147 c-3 -32 -12 -130 -20 -218 -9 -88 -33 -308
-55 -490 -59 -495 -113 -1008 -135 -1275 -12 -137 3 -117 -193 -249 -181 -120
-257 -169 -466 -298 l-119 -73 7 157 c10 265 17 569 27 1248 5 358 12 662 15
676 5 21 80 70 467 302 254 152 466 276 470 277 4 0 5 -26 2 -57z m-8170 -149
c231 -108 425 -201 431 -207 13 -13 26 -207 49 -697 8 -179 19 -424 25 -545 6
-121 22 -388 36 -593 15 -205 24 -375 21 -378 -10 -10 -788 343 -813 370 -6 6
-18 126 -28 291 -22 366 -49 706 -91 1155 -28 301 -65 747 -65 790 0 5 4 10 8
10 4 0 197 -88 427 -196z m-4690 -99 c253 -120 461 -219 463 -220 11 -9 174
-1438 202 -1775 26 -308 27 -316 29 -145 3 336 -44 1038 -105 1555 -14 118
-28 239 -31 268 l-6 53 139 -67 c76 -36 272 -129 434 -205 162 -77 300 -146
305 -153 6 -8 19 -112 28 -232 41 -499 138 -1360 182 -1624 l14 -85 -4 75 c-2
41 -16 210 -30 375 -25 288 -105 1385 -105 1432 0 13 5 23 10 23 6 0 109 -45
228 -99 119 -55 298 -136 397 -180 l180 -80 2 -38 c52 -813 86 -1205 139
-1616 14 -109 24 -202 22 -206 -3 -8 -819 276 -828 289 -3 3 -14 9 -25 12 -21
5 -871 313 -915 331 -14 5 -32 11 -40 13 -8 2 -215 72 -460 157 l-445 154 -12
149 c-42 503 -96 976 -193 1675 -54 397 -54 392 -42 386 4 -2 214 -102 467
-222z m5665 -363 l375 -179 2 -74 c1 -41 7 -180 13 -309 5 -129 15 -377 20
-550 12 -376 26 -716 41 -1013 7 -120 9 -220 7 -223 -4 -3 -738 318 -755 331
-2 1 -16 206 -33 456 -35 534 -50 720 -90 1124 -16 165 -34 361 -40 435 -5 74
-12 156 -15 182 l-6 47 53 -24 c29 -13 222 -105 428 -203z m6166 -214 c-4
-150 -14 -367 -21 -483 -8 -115 -19 -433 -25 -705 -6 -272 -13 -531 -16 -575
l-5 -81 -424 -267 c-233 -147 -431 -270 -441 -274 -14 -5 -16 -1 -10 33 4 21
10 500 13 1064 l5 1025 457 267 c251 147 460 267 465 267 5 1 6 -113 2 -271z
m-4956 -368 l225 -107 7 -244 c3 -134 11 -473 18 -754 6 -280 15 -631 21 -780
6 -148 9 -289 7 -311 l-3 -42 -460 208 -460 208 -7 83 c-3 46 -11 203 -18 349
-15 350 -34 655 -70 1105 -35 434 -50 634 -50 651 0 7 127 -49 283 -123 155
-74 383 -184 507 -243z m3966 -67 c-17 -343 -26 -660 -26 -923 0 -157 -3 -464
-7 -683 l-6 -399 -71 -48 c-62 -41 -713 -449 -803 -503 l-33 -19 0 1084 1
1083 467 272 c257 150 471 272 476 273 5 0 6 -59 2 -137z m-2836 -693 c0 -287
16 -1095 31 -1538 6 -189 9 -346 6 -348 -3 -3 -172 72 -376 167 -359 167 -371
174 -371 201 0 90 -49 836 -109 1648 -11 146 -23 318 -26 382 l-7 117 426
-202 426 -202 0 -225z m-5093 369 c252 -111 462 -205 466 -209 5 -4 24 -225
43 -491 33 -482 64 -877 88 -1144 7 -77 12 -141 11 -142 -2 -3 -985 353 -989
358 -2 2 -11 173 -20 379 -9 206 -28 600 -41 875 -26 525 -28 575 -20 575 2 0
210 -90 462 -201z m6920 -374 c-4 -115 -13 -340 -22 -500 -8 -159 -18 -548
-22 -862 l-6 -573 -206 -134 c-360 -234 -477 -305 -482 -293 -1 1 -16 486 -33
1077 -23 752 -29 1077 -22 1083 6 4 187 106 401 226 307 172 391 216 394 203
2 -10 1 -111 -2 -227z m3487 -30 c-18 -132 -53 -415 -79 -630 -59 -501 -66
-530 -144 -576 -20 -12 -134 -88 -253 -167 -120 -80 -221 -143 -224 -139 -12
12 99 1355 113 1367 5 4 109 69 233 145 124 76 261 162 304 191 44 30 81 52
82 51 1 -1 -13 -110 -32 -242z m-4754 -25 c190 -89 357 -164 372 -167 l26 -5
6 -122 c3 -66 12 -501 21 -966 8 -465 18 -899 22 -964 l6 -119 -54 30 c-91 52
-445 236 -625 326 l-172 86 -6 123 c-3 68 -8 195 -11 283 -9 247 -33 683 -60
1085 -13 201 -27 429 -31 508 l-7 142 84 -39 c46 -21 239 -112 429 -201z
m-4635 -24 l410 -183 8 -104 c57 -790 133 -1599 150 -1599 4 0 5 33 2 73 -3
39 -10 194 -15 342 -13 332 -38 888 -50 1090 -4 83 -7 151 -6 152 4 4 217 -96
518 -244 l318 -156 0 -46 c-1 -25 24 -347 55 -716 72 -861 71 -845 68 -845 -2
0 -195 73 -431 162 -235 89 -650 243 -922 343 l-495 182 -6 344 c-7 366 -21
703 -44 1094 -8 132 -15 257 -15 277 0 35 1 37 23 28 12 -6 207 -93 432 -194z
m8705 -188 c0 -13 -4 -72 -10 -133 -18 -207 -41 -650 -48 -917 -4 -146 -9
-268 -12 -271 -22 -19 -784 -497 -787 -493 -3 2 5 96 16 208 32 313 55 620 77
1006 l6 123 372 249 c204 137 374 249 379 249 4 1 7 -9 7 -21z m-11967 -393
c86 -33 157 -63 157 -67 0 -12 -312 -132 -745 -285 -148 -52 -297 -108 -330
-123 -88 -42 -135 -91 -156 -161 -15 -54 -99 -1063 -99 -1199 0 -27 7 -45 21
-59 25 -23 214 -108 539 -241 208 -86 1408 -560 1416 -560 3 0 -9 26 -25 58
-42 83 -88 219 -113 335 -18 85 -22 134 -22 292 -1 306 35 436 224 822 126
258 196 389 312 584 l69 116 119 -44 118 -45 -40 -97 c-43 -104 -107 -235
-295 -601 -187 -366 -248 -546 -260 -767 -10 -182 22 -321 112 -490 78 -148
195 -273 310 -331 22 -11 321 -129 665 -262 1601 -619 3166 -1242 4775 -1900
1247 -510 1322 -539 1453 -560 69 -12 108 1 192 64 36 27 666 416 1401 865
735 449 1347 824 1360 833 24 15 21 17 -161 104 -452 216 -1860 930 -1860 944
0 3 45 33 99 66 l99 62 583 -285 c321 -156 690 -334 819 -395 290 -138 736
-363 827 -419 126 -76 226 -153 323 -249 120 -118 145 -164 145 -270 0 -99
-26 -152 -125 -251 -124 -126 -270 -227 -775 -539 -403 -249 -596 -375 -800
-520 -440 -313 -688 -439 -980 -496 -123 -24 -385 -25 -510 -1 -123 24 -257
63 -337 98 -37 16 -107 42 -156 58 -50 17 -249 98 -443 181 -451 194 -1248
511 -4389 1748 -2038 802 -4686 1842 -4693 1842 -2 0 -7 -36 -9 -80 -3 -44 -7
-82 -10 -85 -3 -3 -27 6 -53 20 -37 19 -63 25 -111 25 l-64 0 0 76 c0 215 66
1218 96 1453 19 149 32 196 74 261 68 105 169 171 402 261 81 32 194 79 250
104 130 60 427 176 439 172 3 -1 76 -29 162 -62z m5147 -310 c168 -81 308
-150 312 -154 4 -3 14 -96 22 -206 21 -262 71 -803 100 -1080 13 -121 22 -222
19 -224 -3 -4 -690 243 -779 280 l-40 17 -17 283 c-26 421 -67 1186 -67 1246
l0 52 73 -33 c39 -19 209 -100 377 -181z m-4428 33 c247 -95 448 -175 448
-178 0 -4 -36 -72 -81 -151 -91 -163 -354 -685 -416 -829 -153 -350 -163 -735
-28 -1080 14 -35 23 -65 22 -67 -2 -1 -116 42 -253 98 -278 112 -793 310
-1164 449 -265 99 -333 131 -362 170 -18 25 -18 36 27 560 51 604 51 602 76
652 34 67 67 83 475 237 176 67 423 163 549 215 127 52 237 95 245 95 8 1 216
-76 462 -171z m10374 -175 c-4 -164 -11 -415 -16 -558 -5 -143 -10 -301 -10
-351 l0 -91 -247 -155 c-414 -260 -675 -419 -680 -414 -3 2 2 83 11 178 22
243 43 549 57 854 l12 260 431 286 c237 158 435 287 440 287 5 1 6 -125 2
-296z m-5050 -294 l461 -221 7 -136 c17 -333 79 -1084 102 -1219 3 -21 1 -33
-6 -33 -10 0 -940 349 -949 356 -23 18 -107 1474 -85 1474 5 0 216 -99 470
-221z m-3183 -345 c268 -101 513 -193 545 -203 31 -10 761 -284 1622 -609
2975 -1122 3275 -1234 3387 -1262 49 -13 54 -12 75 7 13 11 140 91 284 177
l261 158 219 -110 c120 -60 566 -277 989 -482 424 -205 774 -376 779 -380 4
-5 -86 -64 -200 -133 -1657 -989 -2491 -1486 -2544 -1514 l-65 -35 -200 82
c-419 172 -1464 583 -2765 1087 -1381 535 -3505 1351 -3640 1398 -301 105
-445 215 -546 420 -74 150 -88 220 -88 430 0 162 3 190 26 275 56 206 143 404
337 765 56 105 123 239 147 300 25 60 50 115 55 121 7 8 126 -33 422 -148 226
-87 631 -242 900 -344z m7266 -139 c-7 -110 -14 -341 -15 -514 l-3 -313 -438
-265 c-241 -146 -442 -267 -448 -269 -11 -5 -12 953 0 1120 l7 102 451 291
452 291 3 -122 c2 -66 -2 -211 -9 -321z m-3096 -5 l345 -165 6 -100 c3 -55 11
-179 16 -275 15 -245 38 -555 56 -754 8 -92 14 -170 12 -172 -4 -3 -816 311
-823 318 -2 2 -5 303 -8 670 l-4 667 28 -12 c15 -7 183 -86 372 -177z m2087
-432 c0 -211 8 -457 26 -823 l6 -130 -316 -197 c-173 -109 -317 -198 -319
-198 -13 0 -40 343 -55 714 l-17 440 28 15 c16 9 108 68 205 132 322 210 427
278 435 278 4 1 7 -104 7 -231z m-1305 72 c314 -150 525 -264 526 -283 0 -7 2
-88 4 -182 3 -93 10 -351 16 -573 6 -222 9 -405 7 -407 -2 -2 -199 72 -438
165 l-435 168 5 174 c3 95 4 379 4 630 -1 252 1 456 5 455 3 -2 141 -68 306
-147z m-9098 -765 c65 -43 89 -192 45 -288 -40 -90 -273 -411 -342 -472 l-23
-20 7 160 c10 261 31 447 55 494 44 85 145 157 205 146 17 -3 40 -12 53 -20z
m-367 -801 c5 -13 20 -30 34 -39 57 -38 135 26 264 217 40 58 79 111 86 117
28 24 122 -131 146 -240 17 -77 8 -200 -19 -271 -31 -81 -104 -157 -183 -193
-55 -26 -75 -29 -163 -29 -88 -1 -107 2 -155 25 -88 41 -154 108 -200 202 -71
146 -76 295 -15 423 28 56 95 128 146 155 l34 17 8 -181 c5 -99 13 -191 17
-203z m16005 71 c99 -8 278 -15 397 -15 l217 0 8 -37 c13 -64 9 -352 -6 -412
-19 -74 -69 -124 -153 -149 -287 -89 -1151 -124 -1512 -62 -237 40 -318 111
-235 204 64 73 199 145 597 316 152 65 302 130 332 144 66 30 104 31 355 11z
m-6084 -2853 l94 -39 -2 -36 c-5 -78 -72 -190 -214 -361 l-64 -77 -8 43 c-11
66 10 315 33 390 16 53 52 118 64 118 1 0 45 -17 97 -38z m-283 -649 c9 -16
22 -23 42 -23 23 0 48 19 127 98 54 53 120 127 147 165 l50 67 34 -32 c173
-167 160 -522 -25 -663 -68 -52 -130 -69 -227 -62 -109 8 -133 14 -186 44 -77
46 -138 111 -178 192 -36 74 -37 77 -37 191 0 109 2 118 32 180 39 80 88 138
150 180 l48 31 5 -173 c3 -114 9 -181 18 -195z" />
		<path d="M19203 26635 c2 -5 23 -20 47 -33 62 -32 179 -28 263 11 31 14 57 27
57 29 0 2 -83 3 -185 3 -119 0 -184 -4 -182 -10z" />
		<path d="M19488 26309 c-10 -6 -18 -22 -18 -37 0 -34 78 -156 102 -160 42 -8
28 88 -24 176 -21 34 -32 38 -60 21z" />
		<path d="M19016 26022 c-3 -27 -2 -101 4 -163 17 -198 64 -341 140 -423 53
-57 100 -73 159 -53 44 16 116 69 131 97 9 17 7 18 -20 10 -109 -31 -222 112
-358 458 l-49 124 -7 -50z" />
		<path d="M18743 25943 c-21 -8 -15 -42 18 -104 37 -69 62 -94 85 -85 43 17
-20 197 -69 195 -12 0 -28 -3 -34 -6z" />
		<path d="M19790 25450 c-103 -22 -200 -91 -242 -173 -22 -44 -38 -177 -21
-177 5 0 61 30 124 66 62 37 150 87 194 111 98 55 192 121 198 138 12 29 -165
53 -253 35z m150 -48 c0 -4 -33 -27 -72 -52 -40 -24 -124 -77 -187 -117 -63
-40 -116 -71 -118 -70 -2 2 3 25 11 51 29 96 91 157 186 182 50 14 180 18 180
6z" />
		<path d="M18325 3774 c-165 -102 -595 -369 -955 -593 -360 -224 -875 -540
-1144 -701 -560 -335 -520 -293 -333 -355 178 -60 283 -78 452 -79 128 -1 163
3 240 23 117 30 244 81 336 135 41 23 186 107 323 185 568 326 1021 620 1556
1009 190 138 260 197 260 219 0 22 -61 83 -195 196 -130 109 -189 147 -222
146 -10 0 -153 -83 -318 -185z m254 -31 c-29 -43 -84 -129 -121 -192 l-68
-115 0 126 0 126 118 69 c64 39 119 69 120 67 2 -1 -20 -38 -49 -81z m287 -57
c66 -57 70 -69 35 -108 l-29 -32 -53 56 c-30 30 -62 60 -72 65 -16 8 -16 11
-1 51 l17 41 30 -17 c16 -9 49 -34 73 -56z m-578 -242 c1 -81 7 -155 13 -165
17 -32 61 -23 119 24 47 38 154 160 179 204 8 16 11 15 30 -7 12 -14 28 -37
37 -53 l15 -27 -257 -170 c-142 -94 -262 -170 -266 -170 -5 0 -21 25 -35 57
-51 112 -40 248 29 345 34 48 102 108 122 108 7 0 12 -47 14 -146z m-290 -83
c-11 -70 -10 -94 4 -162 9 -43 27 -103 41 -132 l24 -52 -395 -255 c-504 -325
-605 -387 -779 -476 -235 -120 -401 -162 -602 -151 -101 5 -254 31 -350 60
l-45 13 190 120 c104 66 293 183 419 259 238 144 1498 866 1502 861 2 -1 -3
-40 -9 -85z" />
		<path d="M11066 26065 c2 -33 20 -204 39 -380 161 -1459 407 -2974 720 -4440
124 -580 375 -1641 382 -1618 2 5 -30 200 -71 434 -41 233 -179 1020 -305
1749 -371 2134 -692 3940 -750 4220 -18 85 -19 89 -15 35z" />
		<path d="M8828 22540 c100 -232 405 -835 609 -1203 303 -548 705 -1186 1050
-1667 155 -216 155 -216 52 -15 -437 855 -979 1784 -1572 2695 -156 240 -167
254 -139 190z" />
		<path d="M13773 22200 c-82 -373 -180 -1292 -278 -2600 l-5 -65 15 50 c76 253
183 817 229 1210 46 387 70 932 58 1270 -7 180 -8 187 -19 135z" />
		<path d="M12211 19594 c0 -11 3 -14 6 -6 3 7 2 16 -1 19 -3 4 -6 -2 -5 -13z" />
	</g>
</svg>